<?xml version="1.0" ?><!DOCTYPE svg  PUBLIC '-//W3C//DTD SVG 1.1//EN'  'http://www.w3.org/Graphics/SVG/1.1/DTD/svg11.dtd'><svg height="16.6667in" style="shape-rendering:geometricPrecision; text-rendering:geometricPrecision; image-rendering:optimizeQuality; fill-rule:evenodd; clip-rule:evenodd" version="1.1" viewBox="0 0 16666.66 16666.66" width="16.6667in" xml:space="preserve" xmlns="http://www.w3.org/2000/svg" xmlns:xlink="http://www.w3.org/1999/xlink" xmlns:xodm="http://www.corel.com/coreldraw/odm/2003"><defs><style type="text/css">
   <![CDATA[
    .fil0 {fill:none}
    .fil1 {fill:#ffffff;fill-rule:nonzero}
   ]]>
  </style></defs><g id="Layer_x0020_1"><rect class="fil0" height="16666.66" width="16666.66" x="-0" y="-0"/><g id="_2100652924896"><path class="fil1" d="M5142.59 4996.55c125.75,-670.88 557.42,-1330.32 946.98,-1883.05 417.56,-592.05 871.99,-1077.32 1635.25,-1107.63 1258.15,-50.01 2418.01,775.25 3016.51,1838.24 1391.14,2749 -274.93,5491.85 -1969.19,7692.78 -341.6,-266.7 -646.5,-691.67 -902.8,-969.98 -473.5,-514.29 -929.08,-1047.44 -1334.23,-1617.77 -751.73,-1057.68 -1645.97,-2601.72 -1392.52,-3952.59zm-44.3 3886.27c451.46,745.58 1001.67,1425.77 1584.28,2071.96 293.91,325.92 596.82,643.22 902.92,957.58 216.57,222.39 345.62,380.91 635.8,470.65 284.06,87.94 776.93,-295.07 941.15,-499.99 1887.74,-2353.8 4166.21,-5503.17 2588.17,-8621.62 -690.37,-1226.29 -2088.93,-2074.1 -3519.77,-1868.55 -1543.92,221.64 -2733.12,1413.27 -3483.47,2703.32 -441.49,758.91 -756.15,1470.16 -610.07,2365.57 140.07,858.29 513.24,1681.74 960.98,2421.07z"/><path class="fil1" d="M14983.82 10468.07c-626.19,-798.04 -1670,-963.2 -2625.05,-937.79 -247.39,6.67 -535.58,196.12 -718.67,349.86 -79.44,66.65 -320.61,297.6 -73.4,290.93 906.91,-24.15 1888.97,159.15 2453.05,942.54 510.05,708.3 395.63,1598.37 -280.33,2152.09 -625.65,512.46 -1560.23,765.91 -2327.1,972.18 -855.55,230.15 -1734.21,365.02 -2618.99,409.83 -1667.68,84.54 -3596.81,-91.66 -5114.87,-844.2 -746.03,-369.68 -1471.15,-1133.37 -1324.5,-2038.72 140.07,-864.24 949.62,-984.16 1674.32,-1131.35 235.85,-47.87 564.2,-220.06 713.8,-412.03 123.32,-158.39 116.11,-238.91 -111.24,-192.72 -1173.73,238.29 -3062.52,825.46 -3291.89,2225.59 -324.96,1981.92 2340.97,2620.28 3759.32,2863.43 1805,309.37 3668.02,230.57 5445.12,-206.72 1506.74,-370.91 3347.63,-974.64 4367.95,-2221.68 540.12,-660.16 613.64,-1531.4 72.47,-2221.23z"/><path class="fil1" d="M8723.09 5323.61c110.4,209.69 160.83,449.78 124.49,685.63 -13.15,85.05 -48.2,160.92 -69.62,243.15 -29.25,53.82 -58.47,107.64 -87.81,161.37 104.76,24.03 92.26,33.37 -37.21,27.84 -377.07,81.48 -822.16,-266.04 -998.15,-562.7 -105.54,-177.89 -161.58,-389.89 -151.82,-597.12 5.41,-114.96 29.67,-232.46 69.29,-340.52 11.44,-42.62 30.3,-82.11 52.77,-119.74 97.79,-14.5 201.4,-55.92 300.69,-109.98 333.85,62.32 659.11,349.77 797.38,612.08zm-387.67 1659.94c761.88,-273.24 1655.25,-933.1 1525.69,-1845.87 -148.76,-1049 -1198.2,-1181.24 -2011.81,-880.04 -719.84,219.33 -1391.65,916.8 -1360.92,1652.85 39.31,943.17 1043.08,1361.47 1847.04,1073.06z"/></g></g></svg>
