<svg width="262.000000" height="47.000000" viewBox="0 0 262 47" fill="none" xmlns="http://www.w3.org/2000/svg" xmlns:xlink="http://www.w3.org/1999/xlink">
	<desc>
			Created with Pixso.
	</desc>
	<defs/>
	<path id="INTERIOR LOUNGE" d="M136.47 24.57Q137.75 25.1 139.25 25.1Q140.83 25.1 142.14 24.52Q142.39 24.41 142.62 24.28Q143.42 23.84 144.03 23.22Q144.58 22.67 144.99 21.98Q145.22 21.59 145.39 21.17Q145.86 20.03 145.86 18.69Q145.86 17.38 145.4 16.25Q145.23 15.82 144.99 15.41Q144.58 14.71 144.02 14.16Q143.41 13.55 142.62 13.12Q142.38 12.98 142.12 12.87Q140.81 12.29 139.25 12.29Q137.76 12.29 136.49 12.82Q136.17 12.95 135.86 13.13Q134.96 13.62 134.3 14.32Q133.83 14.82 133.48 15.42Q133.27 15.77 133.11 16.15Q132.63 17.32 132.63 18.69Q132.63 20.09 133.12 21.27Q133.28 21.63 133.48 21.97Q133.83 22.57 134.28 23.06Q134.95 23.77 135.86 24.27Q136.16 24.44 136.47 24.57ZM186.85 24.57Q188.13 25.1 189.63 25.1Q191.21 25.1 192.53 24.52Q192.77 24.41 193.01 24.28Q193.8 23.84 194.41 23.22Q194.96 22.67 195.37 21.98Q195.61 21.59 195.77 21.17Q196.24 20.03 196.24 18.69Q196.24 17.38 195.79 16.25Q195.61 15.82 195.37 15.41Q194.96 14.71 194.4 14.16Q193.79 13.55 193.01 13.12Q192.76 12.98 192.5 12.87Q191.2 12.29 189.63 12.29Q188.14 12.29 186.88 12.82Q186.55 12.95 186.24 13.13Q185.34 13.62 184.68 14.32Q184.21 14.82 183.86 15.42Q183.65 15.77 183.5 16.15Q183.01 17.32 183.01 18.69Q183.01 20.09 183.51 21.27Q183.66 21.63 183.86 21.97Q184.21 22.57 184.67 23.06Q185.34 23.77 186.24 24.27Q186.54 24.44 186.85 24.57ZM243.67 18.69L242.39 18.69L242.39 22.94Q242.24 23.05 242.08 23.15Q240.82 23.91 239.1 23.91Q237.82 23.91 236.76 23.44Q236.54 23.35 236.34 23.23Q235.65 22.84 235.12 22.29Q234.72 21.87 234.41 21.36Q234.23 21.05 234.1 20.72Q233.71 19.79 233.71 18.69Q233.71 17.63 234.08 16.71Q234.22 16.36 234.41 16.03Q234.74 15.47 235.17 15.03Q235.69 14.52 236.35 14.15Q236.56 14.04 236.79 13.94Q237.85 13.48 239.11 13.48Q240.63 13.48 241.8 14.12Q242.4 14.45 242.91 14.95L243.74 14.11Q243.54 13.88 243.31 13.69Q242.62 13.09 241.7 12.75Q240.5 12.29 239.06 12.29Q237.34 12.29 235.95 12.96Q235.79 13.03 235.64 13.12Q234.82 13.56 234.2 14.19Q233.66 14.73 233.26 15.41Q233.03 15.81 232.86 16.23Q232.4 17.37 232.4 18.69Q232.4 20.04 232.87 21.19Q233.04 21.6 233.26 21.98Q233.66 22.65 234.19 23.19Q234.82 23.83 235.64 24.28Q235.84 24.39 236.05 24.49Q237.4 25.1 239.04 25.1Q240.29 25.1 241.43 24.74Q241.5 24.72 241.58 24.69Q242.78 24.27 243.67 23.5L243.67 18.69ZM63.38 12.4L62.05 12.4L62.05 25L63.38 25L63.38 12.4ZM79.81 25L79.81 12.4L78.5 12.4L78.5 22.62L70.38 12.4L69.28 12.4L69.28 25L70.61 25L70.61 14.77L78.71 25L79.81 25ZM83.74 13.55L88.17 13.55L88.17 25L89.5 25L89.5 13.55L93.93 13.55L93.93 12.4L83.74 12.4L83.74 13.55ZM106.76 25L106.76 23.84L99.18 23.84L99.18 19.16L105.7 19.16L105.7 18.03L99.18 18.03L99.18 13.55L106.49 13.55L106.49 12.4L97.85 12.4L97.85 25L106.76 25ZM117.41 20.94L120.3 25L121.76 25L118.67 20.68Q119.88 20.29 120.6 19.47Q120.71 19.35 120.81 19.21Q120.9 19.09 120.98 18.96Q121.56 18.01 121.56 16.72Q121.56 15.38 120.95 14.42Q120.65 13.93 120.19 13.55Q118.82 12.4 116.41 12.4L111.69 12.4L111.69 25L113.02 25L113.02 21L116.41 21Q116.93 21 117.41 20.94ZM127.84 12.4L126.51 12.4L126.51 25L127.84 25L127.84 12.4ZM156.37 20.94L159.25 25L160.71 25L157.63 20.68Q158.83 20.29 159.56 19.47Q159.66 19.35 159.76 19.21Q159.85 19.09 159.93 18.96Q160.51 18.01 160.51 16.72Q160.51 15.38 159.9 14.42Q159.6 13.93 159.14 13.55Q157.77 12.4 155.36 12.4L150.64 12.4L150.64 25L151.98 25L151.98 21L155.36 21Q155.88 21 156.37 20.94ZM173.31 12.4L171.97 12.4L171.97 25L180.36 25L180.36 23.84L173.31 23.84L173.31 12.4ZM202.74 24.11Q204.04 25.1 206.1 25.1Q208.17 25.1 209.46 24.1Q209.7 23.92 209.91 23.7Q209.93 23.68 209.95 23.66Q211.27 22.25 211.27 19.61L211.27 12.4L209.97 12.4L209.97 19.56Q209.97 21.76 208.98 22.84Q208.85 22.98 208.69 23.11Q207.73 23.91 206.1 23.91Q204.51 23.91 203.55 23.13Q203.38 23 203.24 22.84Q202.25 21.76 202.25 19.56L202.25 12.4L200.92 12.4L200.92 19.61Q200.92 22.24 202.23 23.65Q202.26 23.68 202.28 23.7Q202.5 23.92 202.74 24.11ZM227.61 25L227.61 12.4L226.3 12.4L226.3 22.62L218.18 12.4L217.08 12.4L217.08 25L218.41 25L218.41 14.77L226.51 25L227.61 25ZM258.14 25L258.14 23.84L250.56 23.84L250.56 19.16L257.08 19.16L257.08 18.03L250.56 18.03L250.56 13.55L257.87 13.55L257.87 12.4L249.23 12.4L249.23 25L258.14 25ZM141.47 23.47Q140.46 23.91 139.25 23.91Q138.08 23.91 137.08 23.5Q136.8 23.39 136.54 23.24Q135.91 22.89 135.42 22.4Q134.96 21.95 134.63 21.37Q134.45 21.06 134.32 20.73Q133.94 19.79 133.94 18.69Q133.94 17.61 134.31 16.67Q134.45 16.34 134.63 16.03Q134.98 15.43 135.45 14.96Q135.93 14.49 136.54 14.15Q136.81 14 137.1 13.88Q138.09 13.48 139.25 13.48Q140.44 13.48 141.45 13.91Q141.7 14.02 141.95 14.15Q142.56 14.5 143.04 14.97Q143.5 15.44 143.84 16.03Q144.01 16.33 144.14 16.65Q144.52 17.6 144.52 18.69Q144.52 19.8 144.14 20.75Q144.01 21.07 143.84 21.37Q143.51 21.94 143.07 22.39Q142.58 22.89 141.95 23.24Q141.72 23.37 141.47 23.47ZM191.86 23.47Q190.84 23.91 189.63 23.91Q188.46 23.91 187.46 23.5Q187.18 23.39 186.92 23.24Q186.29 22.89 185.8 22.4Q185.35 21.95 185.01 21.37Q184.83 21.06 184.7 20.73Q184.32 19.79 184.32 18.69Q184.32 17.61 184.7 16.67Q184.83 16.34 185.01 16.03Q185.36 15.43 185.83 14.96Q186.31 14.49 186.92 14.15Q187.19 14 187.48 13.88Q188.47 13.48 189.63 13.48Q190.82 13.48 191.83 13.91Q192.09 14.02 192.33 14.15Q192.94 14.5 193.42 14.97Q193.88 15.44 194.22 16.03Q194.39 16.33 194.52 16.65Q194.9 17.6 194.9 18.69Q194.9 19.8 194.52 20.75Q194.39 21.07 194.22 21.37Q193.89 21.94 193.45 22.39Q192.96 22.89 192.33 23.24Q192.1 23.37 191.86 23.47ZM119.23 19.04Q118.24 19.87 116.37 19.87L113.02 19.87L113.02 13.55L116.37 13.55Q118.24 13.55 119.23 14.37Q119.5 14.59 119.69 14.86Q120.22 15.59 120.22 16.72Q120.22 17.76 119.74 18.48Q119.53 18.79 119.23 19.04ZM158.18 19.04Q157.2 19.87 155.32 19.87L151.98 19.87L151.98 13.55L155.32 13.55Q157.2 13.55 158.18 14.37Q158.45 14.59 158.64 14.86Q159.17 15.59 159.17 16.72Q159.17 17.76 158.69 18.48Q158.48 18.79 158.18 19.04Z" fill="#9F7303" fill-opacity="1.000000" fill-rule="evenodd"/>
	<path id="Дизайн общественных пространств" d="M107.41 37.61Q106.94 37.37 106.34 37.37Q105.78 37.37 105.33 37.59Q105.19 37.66 105.06 37.74Q104.84 37.89 104.66 38.09Q104.41 38.38 104.28 38.77Q104.29 37.88 104.51 37.31Q104.69 36.87 105 36.58Q105.09 36.49 105.19 36.42Q105.64 36.09 106.37 35.92L108.35 35.45L108.28 35.03L106.2 35.53Q105.39 35.73 104.87 36.13Q104.81 36.18 104.76 36.23Q104.33 36.61 104.1 37.23Q103.84 37.92 103.84 38.97Q103.84 39.9 104.13 40.59Q104.37 41.18 104.81 41.55Q104.88 41.61 104.96 41.66Q105.01 41.7 105.06 41.73Q105.57 42.04 106.27 42.04Q106.88 42.04 107.36 41.8Q107.42 41.77 107.47 41.74Q107.73 41.59 107.94 41.39Q108.14 41.17 108.29 40.9Q108.31 40.87 108.33 40.84Q108.59 40.33 108.59 39.68Q108.59 39 108.3 38.48Q108.13 38.18 107.9 37.96Q107.72 37.79 107.5 37.66Q107.46 37.64 107.41 37.61ZM85.2 36.33Q85.54 36.58 86.07 36.58Q86.6 36.58 86.93 36.32Q86.96 36.31 86.99 36.28Q87.09 36.19 87.17 36.08Q87.34 35.83 87.35 35.47L87.01 35.47Q87 35.7 86.9 35.87Q86.83 35.97 86.73 36.06Q86.7 36.08 86.66 36.11Q86.42 36.27 86.07 36.27Q85.72 36.27 85.48 36.11Q85.44 36.09 85.4 36.06Q85.29 35.97 85.23 35.86Q85.13 35.69 85.12 35.47L84.79 35.47Q84.8 35.83 84.97 36.08Q85.04 36.19 85.15 36.28Q85.18 36.31 85.2 36.33ZM66.74 43.43L66.74 41.58L65.76 41.58L65.76 35.7L61.67 35.7L61.61 37.77Q61.55 39.55 61.3 40.54Q61.1 41.35 60.64 41.53Q60.55 41.57 60.44 41.58L60.09 41.58L60.09 43.43L60.53 43.43L60.54 42L66.29 42L66.29 43.43L66.74 43.43ZM61.79 40.3Q61.97 39.33 62.03 37.8L62.08 36.11L65.31 36.11L65.31 41.58L61.16 41.58Q61.61 41.27 61.79 40.3ZM76.95 39.94Q76.66 39.65 76.14 39.55Q76.57 39.42 76.83 39.14Q76.98 38.99 77.05 38.8Q77.1 38.66 77.1 38.49Q77.1 38.26 77.01 38.06Q76.88 37.78 76.57 37.58Q76.05 37.24 75.27 37.24Q74.89 37.24 74.54 37.32Q74.04 37.43 73.58 37.68L73.72 38.04Q74.12 37.81 74.56 37.71Q74.88 37.64 75.21 37.64Q75.83 37.64 76.23 37.88Q76.46 38.01 76.56 38.21Q76.64 38.36 76.64 38.56Q76.64 38.7 76.59 38.81Q76.5 39.02 76.27 39.16Q75.91 39.38 75.34 39.38L74.6 39.38L74.6 39.73L75.36 39.73Q76.01 39.73 76.39 39.97Q76.61 40.11 76.71 40.31Q76.77 40.45 76.77 40.62Q76.77 40.78 76.71 40.92Q76.61 41.19 76.31 41.37Q75.85 41.65 75.19 41.65Q75.08 41.65 74.97 41.64Q74.63 41.62 74.3 41.51Q73.86 41.36 73.55 41.09L73.37 41.43Q73.73 41.72 74.21 41.88Q74.48 41.97 74.75 42.01Q74.97 42.04 75.19 42.04Q75.74 42.04 76.21 41.87Q76.68 41.7 76.96 41.38Q77.1 41.22 77.17 41.02Q77.23 40.85 77.23 40.65Q77.23 40.41 77.14 40.21Q77.07 40.06 76.95 39.94ZM81.67 37.68Q81.2 37.26 80.35 37.26Q79.94 37.26 79.56 37.36Q79.44 37.39 79.32 37.44Q78.82 37.61 78.47 37.93L78.7 38.25Q79 37.98 79.42 37.82Q79.57 37.77 79.72 37.73Q80.01 37.66 80.32 37.66Q81 37.66 81.35 38Q81.36 38 81.36 38Q81.39 38.03 81.41 38.06Q81.71 38.4 81.71 39L81.71 39.38L80.1 39.38Q79.18 39.38 78.76 39.74Q78.59 39.89 78.49 40.09Q78.35 40.35 78.35 40.69Q78.35 41.02 78.48 41.28Q78.59 41.5 78.8 41.66Q79.25 42.03 80.04 42.03Q80.64 42.03 81.07 41.8Q81.34 41.66 81.53 41.44Q81.65 41.31 81.73 41.16L81.73 42L82.16 42L82.16 39.02Q82.16 38.22 81.77 37.78Q81.73 37.74 81.69 37.71Q81.68 37.7 81.67 37.68ZM99.38 41.84Q99.82 42.03 100.34 42.03Q100.87 42.03 101.32 41.84Q101.43 41.79 101.54 41.72Q101.79 41.59 101.99 41.4Q102.22 41.17 102.39 40.87Q102.44 40.78 102.48 40.69Q102.69 40.21 102.69 39.65Q102.69 39.08 102.48 38.61Q102.44 38.51 102.39 38.42Q102.22 38.12 101.99 37.9Q101.79 37.71 101.54 37.57Q101.43 37.5 101.32 37.45Q100.87 37.26 100.34 37.26Q99.82 37.26 99.38 37.45Q99.26 37.5 99.14 37.57Q98.9 37.71 98.7 37.9Q98.47 38.12 98.3 38.42Q98.25 38.5 98.21 38.59Q97.99 39.07 97.99 39.65Q97.99 40.22 98.21 40.7Q98.25 40.79 98.3 40.87Q98.47 41.17 98.7 41.4Q98.9 41.59 99.14 41.72Q99.26 41.79 99.38 41.84ZM118.29 39.75L122.33 39.75L122.34 39.63Q122.34 38.99 122.08 38.48Q122.07 38.44 122.05 38.4Q121.86 38.06 121.58 37.81Q121.43 37.67 121.25 37.56Q121.13 37.5 121.02 37.45Q120.6 37.26 120.1 37.26Q119.63 37.26 119.23 37.43Q119.08 37.49 118.95 37.57Q118.75 37.68 118.59 37.83Q118.32 38.08 118.14 38.42Q118.11 38.47 118.09 38.52Q117.85 39.03 117.85 39.65Q117.85 40.26 118.09 40.75Q118.12 40.82 118.16 40.88Q118.3 41.13 118.5 41.33Q118.73 41.56 119.02 41.72Q119.06 41.75 119.1 41.77Q119.62 42.03 120.27 42.03Q120.75 42.03 121.18 41.87Q121.23 41.85 121.27 41.83Q121.61 41.69 121.86 41.46Q121.96 41.37 122.04 41.27L121.78 40.97Q121.67 41.11 121.54 41.21Q121.36 41.36 121.13 41.46Q121.12 41.46 121.12 41.47Q120.73 41.63 120.28 41.63Q119.76 41.63 119.33 41.42Q119.3 41.41 119.28 41.39Q119.04 41.27 118.85 41.09Q118.69 40.93 118.57 40.73Q118.53 40.67 118.5 40.61Q118.31 40.22 118.29 39.75ZM124.64 41.81Q125.12 42.03 125.71 42.03Q126.27 42.03 126.73 41.81L126.74 41.81Q126.97 41.7 127.16 41.54Q127.34 41.38 127.49 41.17L127.16 40.92Q126.99 41.16 126.76 41.32Q126.65 41.39 126.53 41.45Q126.51 41.46 126.48 41.47Q126.13 41.63 125.71 41.63Q125.24 41.63 124.86 41.45Q124.79 41.42 124.72 41.38Q124.54 41.28 124.39 41.14Q124.18 40.95 124.04 40.68L124.03 40.68Q123.79 40.23 123.79 39.65Q123.79 39.06 124.03 38.61L124.04 38.61Q124.18 38.34 124.4 38.15Q124.54 38.01 124.72 37.91Q124.79 37.87 124.87 37.84Q125.25 37.67 125.71 37.67Q126.13 37.67 126.48 37.82Q126.51 37.83 126.53 37.84Q126.65 37.9 126.76 37.98Q126.99 38.13 127.16 38.37L127.49 38.13Q127.34 37.92 127.16 37.75Q126.97 37.59 126.74 37.48L126.73 37.48Q126.27 37.26 125.71 37.26Q125.1 37.26 124.61 37.49Q124.55 37.53 124.48 37.56Q124.23 37.7 124.03 37.9Q123.8 38.12 123.64 38.41Q123.6 38.47 123.57 38.53Q123.33 39.03 123.33 39.65Q123.33 40.22 123.55 40.7Q123.59 40.79 123.64 40.87Q123.79 41.16 124.02 41.38Q124.22 41.58 124.48 41.72Q124.56 41.77 124.64 41.81ZM138.2 39.75L142.24 39.75L142.25 39.63Q142.25 38.99 141.99 38.48Q141.97 38.44 141.95 38.4Q141.77 38.06 141.49 37.81Q141.34 37.67 141.15 37.56Q141.04 37.5 140.92 37.45Q140.51 37.26 140.01 37.26Q139.54 37.26 139.13 37.43Q138.99 37.49 138.85 37.57Q138.66 37.68 138.5 37.83Q138.23 38.08 138.05 38.42Q138.02 38.47 138 38.52Q137.76 39.03 137.76 39.65Q137.76 40.26 138 40.75Q138.03 40.82 138.07 40.88Q138.21 41.13 138.41 41.33Q138.63 41.56 138.93 41.72Q138.97 41.75 139.01 41.77Q139.53 42.03 140.18 42.03Q140.66 42.03 141.09 41.87Q141.13 41.85 141.18 41.83Q141.52 41.69 141.77 41.46Q141.87 41.37 141.95 41.27L141.69 40.97Q141.58 41.11 141.45 41.21Q141.26 41.36 141.04 41.46Q141.03 41.46 141.02 41.47Q140.64 41.63 140.19 41.63Q139.66 41.63 139.24 41.42Q139.21 41.41 139.18 41.39Q138.95 41.27 138.76 41.09Q138.6 40.93 138.48 40.73Q138.44 40.67 138.41 40.61Q138.21 40.22 138.2 39.75ZM178.93 37.44Q178.51 37.26 178.01 37.26Q177.56 37.26 177.18 37.41Q177.02 37.48 176.87 37.56Q176.67 37.68 176.5 37.84Q176.25 38.08 176.09 38.4L176.09 37.3L175.65 37.3L175.65 43.74L176.1 43.74L176.1 40.92Q176.26 41.21 176.48 41.43Q176.66 41.61 176.89 41.74Q177.03 41.82 177.18 41.88Q177.57 42.03 178.01 42.03Q178.52 42.03 178.95 41.85Q179.08 41.8 179.2 41.73Q179.43 41.6 179.62 41.42Q179.86 41.19 180.03 40.88Q180.06 40.83 180.09 40.78Q180.33 40.27 180.33 39.65Q180.33 39.01 180.08 38.5Q180.06 38.45 180.03 38.41Q179.87 38.13 179.65 37.91Q179.45 37.71 179.2 37.57Q179.07 37.49 178.93 37.44ZM182.71 41.84Q183.15 42.03 183.67 42.03Q184.2 42.03 184.65 41.84Q184.76 41.79 184.87 41.72Q185.12 41.59 185.32 41.4Q185.55 41.17 185.72 40.87Q185.77 40.78 185.81 40.69Q186.02 40.21 186.02 39.65Q186.02 39.08 185.81 38.61Q185.77 38.51 185.72 38.42Q185.55 38.12 185.32 37.9Q185.12 37.71 184.87 37.57Q184.76 37.5 184.65 37.45Q184.2 37.26 183.67 37.26Q183.15 37.26 182.71 37.45Q182.59 37.5 182.47 37.57Q182.23 37.71 182.03 37.9Q181.8 38.12 181.63 38.42Q181.58 38.5 181.54 38.59Q181.33 39.07 181.33 39.65Q181.33 40.22 181.54 40.7Q181.58 40.79 181.63 40.87Q181.8 41.17 182.03 41.4Q182.23 41.59 182.47 41.72Q182.59 41.79 182.71 41.84ZM188.32 41.81Q188.8 42.03 189.39 42.03Q189.95 42.03 190.41 41.81L190.42 41.81Q190.65 41.7 190.84 41.54Q191.03 41.38 191.17 41.17L190.84 40.92Q190.67 41.16 190.44 41.32Q190.34 41.39 190.21 41.45Q190.19 41.46 190.17 41.47Q189.81 41.63 189.39 41.63Q188.93 41.63 188.54 41.45Q188.47 41.42 188.4 41.38Q188.22 41.28 188.08 41.14Q187.87 40.95 187.72 40.68L187.72 40.68Q187.47 40.23 187.47 39.65Q187.47 39.06 187.72 38.61L187.72 38.61Q187.87 38.34 188.08 38.15Q188.23 38.01 188.4 37.91Q188.48 37.87 188.56 37.84Q188.93 37.67 189.39 37.67Q189.81 37.67 190.17 37.82Q190.19 37.83 190.21 37.84Q190.34 37.9 190.44 37.98Q190.67 38.13 190.84 38.37L191.17 38.13Q191.03 37.92 190.84 37.75Q190.65 37.59 190.42 37.48L190.41 37.48Q189.95 37.26 189.39 37.26Q188.79 37.26 188.3 37.49Q188.23 37.53 188.17 37.56Q187.91 37.7 187.71 37.9Q187.48 38.12 187.32 38.41Q187.28 38.47 187.25 38.53Q187.01 39.03 187.01 39.65Q187.01 40.22 187.23 40.7Q187.27 40.79 187.32 40.87Q187.48 41.16 187.7 41.38Q187.91 41.58 188.17 41.72Q188.24 41.77 188.32 41.81ZM199.78 37.44Q199.36 37.26 198.86 37.26Q198.42 37.26 198.03 37.41Q197.87 37.48 197.73 37.56Q197.52 37.68 197.36 37.84Q197.11 38.08 196.94 38.4L196.94 37.3L196.51 37.3L196.51 43.74L196.96 43.74L196.96 40.92Q197.11 41.21 197.33 41.43Q197.51 41.61 197.74 41.74Q197.88 41.82 198.03 41.88Q198.42 42.03 198.86 42.03Q199.37 42.03 199.81 41.85Q199.93 41.8 200.05 41.73Q200.29 41.6 200.47 41.42Q200.72 41.19 200.89 40.88Q200.91 40.83 200.94 40.78Q201.19 40.27 201.19 39.65Q201.19 39.01 200.93 38.5Q200.91 38.45 200.89 38.41Q200.73 38.13 200.5 37.91Q200.3 37.71 200.05 37.57Q199.92 37.49 199.78 37.44ZM205.51 37.68Q205.04 37.26 204.19 37.26Q203.79 37.26 203.4 37.36Q203.28 37.39 203.16 37.44Q202.66 37.61 202.31 37.93L202.54 38.25Q202.84 37.98 203.26 37.82Q203.41 37.77 203.56 37.73Q203.85 37.66 204.16 37.66Q204.84 37.66 205.19 38L205.2 38Q205.23 38.03 205.25 38.06Q205.55 38.4 205.55 39L205.55 39.38L203.94 39.38Q203.02 39.38 202.6 39.74Q202.43 39.89 202.33 40.09Q202.19 40.35 202.19 40.69Q202.19 41.02 202.32 41.28Q202.43 41.5 202.64 41.66Q203.09 42.03 203.88 42.03Q204.48 42.03 204.91 41.8Q205.18 41.66 205.37 41.44Q205.49 41.31 205.57 41.16L205.57 42L206 42L206 39.02Q206 38.22 205.61 37.78Q205.57 37.74 205.53 37.71Q205.52 37.7 205.51 37.68ZM214.69 41.81Q215.17 42.03 215.76 42.03Q216.32 42.03 216.78 41.81L216.79 41.81Q217.02 41.7 217.21 41.54Q217.4 41.38 217.54 41.17L217.21 40.92Q217.04 41.16 216.81 41.32Q216.71 41.39 216.58 41.45Q216.56 41.46 216.54 41.47Q216.18 41.63 215.76 41.63Q215.3 41.63 214.91 41.45Q214.84 41.42 214.77 41.38Q214.59 41.28 214.45 41.14Q214.24 40.95 214.09 40.68L214.09 40.68Q213.84 40.23 213.84 39.65Q213.84 39.06 214.09 38.61L214.09 38.61Q214.24 38.34 214.45 38.15Q214.6 38.01 214.77 37.91Q214.85 37.87 214.93 37.84Q215.3 37.67 215.76 37.67Q216.18 37.67 216.54 37.82Q216.56 37.83 216.58 37.84Q216.71 37.9 216.81 37.98Q217.04 38.13 217.21 38.37L217.54 38.13Q217.4 37.92 217.21 37.75Q217.02 37.59 216.79 37.48L216.78 37.48Q216.32 37.26 215.76 37.26Q215.16 37.26 214.67 37.49Q214.6 37.53 214.54 37.56Q214.28 37.7 214.08 37.9Q213.85 38.12 213.69 38.41Q213.65 38.47 213.62 38.53Q213.38 39.03 213.38 39.65Q213.38 40.22 213.6 40.7Q213.64 40.79 213.69 40.87Q213.85 41.16 214.07 41.38Q214.28 41.58 214.54 41.72Q214.61 41.77 214.69 41.81ZM68.49 37.3L68.04 37.3L68.04 42L68.44 42L71.78 37.99L71.78 42L72.23 42L72.23 37.3L71.84 37.3L68.49 41.3L68.49 37.3ZM84.44 37.3L83.99 37.3L83.99 42L84.39 42L87.73 37.99L87.73 42L88.18 42L88.18 37.3L87.79 37.3L84.44 41.3L84.44 37.3ZM90.58 37.3L90.13 37.3L90.13 42L90.58 42L90.58 39.84L93.76 39.84L93.76 42L94.21 42L94.21 37.3L93.76 37.3L93.76 39.44L90.58 39.44L90.58 37.3ZM116.38 41.6L116.38 37.3L115.93 37.3L115.93 41.6L113.46 41.6L113.46 37.3L113.01 37.3L113.01 41.6L110.51 41.6L110.51 37.3L110.06 37.3L110.06 42L116.69 42L116.69 43.06L117.12 43.06L117.12 41.6L116.38 41.6ZM130.01 37.7L131.85 37.7L131.85 37.3L127.73 37.3L127.73 37.7L129.56 37.7L129.56 42L130.01 42L130.01 37.7ZM136.41 40Q136.15 39.67 135.6 39.57Q136 39.46 136.23 39.19Q136.23 39.19 136.24 39.18Q136.28 39.12 136.32 39.06Q136.47 38.82 136.47 38.49Q136.47 38.17 136.32 37.93Q136.21 37.74 136.02 37.61Q135.58 37.3 134.79 37.3L132.81 37.3L132.81 42L134.85 42Q135.74 42 136.18 41.67Q136.35 41.55 136.46 41.39Q136.63 41.12 136.63 40.74Q136.63 40.28 136.41 40ZM144.16 37.3L143.71 37.3L143.71 42L144.16 42L144.16 39.84L147.35 39.84L147.35 42L147.8 42L147.8 37.3L147.35 37.3L147.35 39.44L144.16 39.44L144.16 37.3ZM150.19 37.3L149.74 37.3L149.74 42L150.19 42L150.19 39.84L153.38 39.84L153.38 42L153.83 42L153.83 37.3L153.38 37.3L153.38 39.44L150.19 39.44L150.19 37.3ZM158.96 39.39Q158.5 39.02 157.63 39.01L156.22 38.99L156.22 37.3L155.77 37.3L155.77 42L157.53 42.01Q158.45 42.02 158.93 41.63Q159.06 41.52 159.16 41.39Q159.42 41.03 159.42 40.48Q159.42 39.94 159.16 39.59Q159.07 39.48 158.96 39.39ZM160.73 37.3L160.28 37.3L160.28 42L160.73 42L160.73 37.3ZM164 39.9L165.61 42L166.14 42L164.25 39.57L166.02 37.3L165.51 37.3L164 39.25L162.49 37.3L161.97 37.3L163.74 39.57L161.88 42L162.39 42L164 39.9ZM173.7 42L173.7 37.3L169.6 37.3L169.6 42L170.05 42L170.05 37.7L173.25 37.7L173.25 42L173.7 42ZM193.7 37.7L195.54 37.7L195.54 37.3L191.41 37.3L191.41 37.7L193.25 37.7L193.25 42L193.7 42L193.7 37.7ZM208.28 37.3L207.83 37.3L207.83 42L208.28 42L208.28 39.84L211.47 39.84L211.47 42L211.92 42L211.92 37.3L211.47 37.3L211.47 39.44L208.28 39.44L208.28 37.3ZM220.07 37.7L221.91 37.7L221.91 37.3L217.78 37.3L217.78 37.7L219.62 37.7L219.62 42L220.07 42L220.07 37.7ZM226.47 40Q226.21 39.67 225.65 39.57Q226.05 39.46 226.28 39.19Q226.29 39.19 226.29 39.18Q226.34 39.12 226.38 39.06Q226.52 38.82 226.52 38.49Q226.52 38.17 226.38 37.93Q226.27 37.74 226.08 37.61Q225.63 37.3 224.85 37.3L222.87 37.3L222.87 42L224.9 42Q225.79 42 226.24 41.67Q226.41 41.55 226.51 41.39Q226.68 41.12 226.68 40.74Q226.68 40.28 226.47 40ZM119.32 37.82Q119.67 37.66 120.1 37.66Q120.5 37.66 120.83 37.8Q120.91 37.84 120.99 37.88Q121.15 37.98 121.29 38.1Q121.48 38.27 121.63 38.5Q121.67 38.57 121.71 38.65Q121.88 38.99 121.9 39.4L118.3 39.4Q118.33 38.96 118.51 38.6Q118.54 38.55 118.57 38.5Q118.72 38.25 118.93 38.07Q119.06 37.96 119.21 37.88Q119.26 37.85 119.32 37.82ZM139.23 37.82Q139.58 37.66 140.01 37.66Q140.4 37.66 140.74 37.8Q140.82 37.84 140.9 37.88Q141.06 37.98 141.2 38.1Q141.39 38.27 141.54 38.5Q141.58 38.57 141.62 38.65Q141.78 38.99 141.81 39.4L138.21 39.4Q138.24 38.96 138.42 38.6Q138.45 38.55 138.48 38.5Q138.63 38.25 138.84 38.07Q138.97 37.96 139.11 37.88Q139.17 37.85 139.23 37.82ZM101.15 41.46Q100.78 41.63 100.34 41.63Q99.91 41.63 99.55 41.46Q99.46 41.42 99.37 41.38Q99.22 41.28 99.09 41.16Q98.86 40.96 98.7 40.67Q98.69 40.65 98.67 40.62Q98.45 40.19 98.45 39.65Q98.45 39.1 98.67 38.67Q98.69 38.64 98.7 38.62Q98.86 38.33 99.09 38.13Q99.22 38.01 99.37 37.92Q99.46 37.87 99.56 37.83Q99.92 37.67 100.34 37.67Q100.78 37.67 101.14 37.83Q101.23 37.87 101.31 37.92Q101.47 38.02 101.61 38.14Q101.83 38.34 101.99 38.62Q102 38.65 102.02 38.68Q102.23 39.11 102.23 39.65Q102.23 40.18 102.02 40.61Q102 40.64 101.99 40.67Q101.84 40.95 101.62 41.15Q101.48 41.28 101.31 41.38Q101.23 41.42 101.15 41.46ZM134.77 39.44L133.25 39.44L133.25 37.67L134.77 37.67Q135.38 37.67 135.7 37.89Q135.81 37.97 135.89 38.08Q136.02 38.27 136.02 38.55Q136.02 38.81 135.9 38.99Q135.83 39.12 135.69 39.21Q135.37 39.44 134.77 39.44ZM178.77 41.47Q178.41 41.63 177.98 41.63Q177.55 41.63 177.19 41.46Q177.1 41.42 177.02 41.38Q176.86 41.28 176.73 41.16Q176.5 40.96 176.34 40.67Q176.33 40.65 176.32 40.62Q176.1 40.19 176.1 39.65Q176.1 39.1 176.32 38.67Q176.33 38.64 176.34 38.62Q176.5 38.33 176.73 38.13Q176.86 38.01 177.02 37.92Q177.1 37.87 177.2 37.83Q177.56 37.67 177.98 37.67Q178.41 37.67 178.76 37.82Q178.86 37.86 178.96 37.92Q179.13 38.02 179.28 38.16Q179.49 38.35 179.63 38.62Q179.65 38.65 179.67 38.68Q179.88 39.11 179.88 39.65Q179.88 40.18 179.67 40.61Q179.65 40.64 179.63 40.67Q179.49 40.93 179.28 41.13Q179.14 41.27 178.96 41.38Q178.87 41.43 178.77 41.47ZM184.48 41.46Q184.12 41.63 183.67 41.63Q183.24 41.63 182.88 41.46Q182.79 41.42 182.71 41.38Q182.55 41.28 182.42 41.16Q182.19 40.96 182.03 40.67Q182.02 40.65 182.01 40.62Q181.79 40.19 181.79 39.65Q181.79 39.1 182.01 38.67Q182.02 38.64 182.03 38.62Q182.19 38.33 182.42 38.13Q182.55 38.01 182.71 37.92Q182.79 37.87 182.89 37.83Q183.25 37.67 183.67 37.67Q184.11 37.67 184.47 37.83Q184.56 37.87 184.64 37.92Q184.81 38.02 184.94 38.14Q185.16 38.34 185.32 38.62Q185.33 38.65 185.35 38.68Q185.56 39.11 185.56 39.65Q185.56 40.18 185.35 40.61Q185.33 40.64 185.32 40.67Q185.17 40.95 184.95 41.15Q184.81 41.28 184.64 41.38Q184.56 41.42 184.48 41.46ZM199.63 41.47Q199.27 41.63 198.84 41.63Q198.4 41.63 198.04 41.46Q197.95 41.42 197.87 41.38Q197.71 41.28 197.58 41.16Q197.35 40.96 197.19 40.67Q197.18 40.65 197.17 40.62Q196.95 40.19 196.95 39.65Q196.95 39.1 197.17 38.67Q197.18 38.64 197.19 38.62Q197.35 38.33 197.59 38.13Q197.72 38.01 197.87 37.92Q197.96 37.87 198.05 37.83Q198.41 37.67 198.84 37.67Q199.26 37.67 199.62 37.82Q199.72 37.86 199.81 37.92Q199.99 38.02 200.13 38.16Q200.34 38.35 200.49 38.62Q200.5 38.65 200.52 38.68Q200.74 39.11 200.74 39.65Q200.74 40.18 200.52 40.61Q200.5 40.64 200.49 40.67Q200.34 40.93 200.14 41.13Q199.99 41.27 199.81 41.38Q199.72 41.43 199.63 41.47ZM224.82 39.44L223.31 39.44L223.31 37.67L224.82 37.67Q225.43 37.67 225.75 37.89Q225.87 37.97 225.94 38.08Q226.07 38.27 226.07 38.55Q226.07 38.81 225.96 38.99Q225.88 39.12 225.75 39.21Q225.43 39.44 224.82 39.44ZM107.05 41.5Q106.7 41.65 106.28 41.65Q105.84 41.65 105.47 41.48Q105.39 41.45 105.32 41.4Q105.14 41.3 105 41.16Q104.8 40.96 104.66 40.7L104.66 40.7Q104.43 40.25 104.43 39.69Q104.43 39.12 104.66 38.69Q104.8 38.43 105 38.25Q105.14 38.11 105.32 38.01Q105.37 37.99 105.41 37.96Q105.8 37.77 106.28 37.77Q106.78 37.77 107.17 37.98Q107.21 37.99 107.24 38.01Q107.41 38.11 107.56 38.24Q107.76 38.43 107.89 38.69Q108.13 39.12 108.13 39.69Q108.13 40.25 107.9 40.69Q107.9 40.69 107.89 40.7Q107.76 40.95 107.57 41.14Q107.42 41.29 107.24 41.4Q107.14 41.46 107.05 41.5ZM158.6 41.36Q158.23 41.66 157.51 41.65L156.22 41.63L156.22 39.34L157.51 39.35Q158.25 39.37 158.61 39.64Q158.69 39.71 158.75 39.78Q158.97 40.05 158.97 40.48Q158.97 40.93 158.75 41.21Q158.68 41.3 158.6 41.36ZM81.1 41.39Q80.69 41.66 80.1 41.66Q79.48 41.66 79.14 41.4Q78.99 41.28 78.91 41.14Q78.8 40.94 78.8 40.67Q78.8 40.39 78.92 40.19Q78.99 40.07 79.11 39.98Q79.42 39.73 80.11 39.73L81.71 39.73L81.71 40.61Q81.54 41.04 81.22 41.3Q81.16 41.35 81.1 41.39ZM204.94 41.39Q204.53 41.66 203.94 41.66Q203.32 41.66 202.98 41.4Q202.83 41.28 202.75 41.14Q202.64 40.94 202.64 40.67Q202.64 40.39 202.76 40.19Q202.83 40.07 202.95 39.98Q203.26 39.73 203.95 39.73L205.55 39.73L205.55 40.61Q205.38 41.04 205.06 41.3Q205 41.35 204.94 41.39ZM136.05 41.2Q135.76 41.63 134.84 41.63L133.25 41.63L133.25 39.79L134.91 39.79Q135.57 39.79 135.87 40.02Q135.95 40.07 136 40.13Q136.18 40.35 136.18 40.72Q136.18 41 136.05 41.2ZM226.1 41.2Q225.81 41.63 224.89 41.63L223.31 41.63L223.31 39.79L224.97 39.79Q225.62 39.79 225.93 40.02Q226 40.07 226.05 40.13Q226.23 40.35 226.23 40.72Q226.23 41 226.1 41.2Z" fill="#000000" fill-opacity="1.000000" fill-rule="evenodd"/>
	<path id="Vector" d="M42 27.48L42 46.5C42 46.76 41.79 46.98 41.53 46.98L16.96 46.98C16.7 46.98 16.5 46.76 16.5 46.5L16.5 41.48L20.57 41.48C21.08 41.48 21.5 41.05 21.5 40.52L21.5 37L25.57 37C26.08 37 26.5 36.56 26.5 36.03L26.5 31.82L30.57 31.82C31.08 31.82 31.5 31.39 31.5 30.86L31.5 27L41.53 27C41.79 27 42 27.21 42 27.48Z" fill="#F5D581" fill-opacity="1.000000" fill-rule="nonzero"/>
	<line id="Line 1" x1="20.518555" y1="0.870361" x2="20.518555" y2="6.092590" stroke="#F5D581" stroke-opacity="1.000000" stroke-width="1.000000"/>
	<path id="Rectangle 2" d="M24.21 6.09L26.11 12.18L15.66 12.18L17.56 6.09L24.21 6.09Z" stroke="#F5D581" stroke-opacity="1.000000" stroke-width="1.000000" stroke-linejoin="round"/>
	<path id="Vector" d="M10 42L10 41L4 41L4 44.5C4 45.32 4.67 46 5.49 46L8.5 46C9.32 46 10 45.32 10 44.5L10 42ZM9 42L9 44.5Q9 44.6 8.96 44.69Q8.92 44.78 8.85 44.85Q8.78 44.92 8.69 44.96Q8.6 45 8.5 45L5.49 45Q5.39 45 5.3 44.96Q5.21 44.92 5.14 44.85Q5.07 44.78 5.03 44.69Q5 44.6 5 44.5L5 42L9 42Z" fill="#F5D581" fill-opacity="1.000000" fill-rule="evenodd"/>
	<line id="Line 2" x1="36.500000" y1="28.722229" x2="36.500000" y2="19.148163" stroke="#F5D581" stroke-opacity="1.000000" stroke-width="1.000000"/>
	<path id="Line 3" d="M32 27.5L32 19.5" stroke="#F5D581" stroke-opacity="1.000000" stroke-width="1.000000"/>
	<path id="Line 4" d="M27 33.94L27 20" stroke="#F5D581" stroke-opacity="1.000000" stroke-width="1.000000"/>
	<path id="Line 5" d="M22 38.29L22 24.5" stroke="#F5D581" stroke-opacity="1.000000" stroke-width="1.000000"/>
	<path id="Line 6" d="M17 42.29L17 29" stroke="#F5D581" stroke-opacity="1.000000" stroke-width="1.000000"/>
	<path id="Vector" d="M3.49 41L10.5 41C10.77 41 11 41.11 11 41.25L11 41.75C11 41.88 10.77 42 10.5 42L3.49 42C3.22 42 3 41.88 3 41.75L3 41.25C3 41.11 3.22 41 3.49 41Z" fill="#F5D581" fill-opacity="1.000000" fill-rule="nonzero"/>
	<path id="Vector" d="M6.33 40.11L6.33 40.11C6.25 39.97 6.15 39.84 6.04 39.72C5.75 39.43 5.41 39.18 5.03 38.99C4.71 38.83 4.36 38.71 4 38.63C4 39.01 4.07 39.37 4.2 39.72C4.33 40.06 4.51 40.38 4.75 40.67C5.04 40.97 5.38 41.21 5.76 41.4C6.08 41.56 6.43 41.68 6.8 41.76C6.79 41.39 6.72 41.02 6.59 40.67C6.52 40.48 6.43 40.29 6.33 40.11Z" fill="#F5D581" fill-opacity="1.000000" fill-rule="evenodd"/>
	<path id="Vector" d="M7.54 39.83C7.56 39.71 7.58 39.59 7.59 39.47C7.61 38.99 7.55 38.51 7.42 38.05C7.32 37.68 7.17 37.32 6.97 37C6.72 37.28 6.5 37.6 6.33 37.95C6.13 38.37 5.99 38.83 5.93 39.31C5.91 39.49 5.91 39.68 5.93 39.86L5.93 39.87C6.04 40.11 6.14 40.36 6.21 40.62C6.3 40.96 6.35 41.32 6.36 41.67L6.36 41.68L7.09 41.68L7.09 41.67C7.1 41.32 7.15 40.96 7.24 40.62C7.31 40.35 7.41 40.08 7.54 39.83L7.54 39.83Z" fill="#F5D581" fill-opacity="1.000000" fill-rule="evenodd"/>
	<path id="Vector" d="M7.22 40.08C7.08 40.27 6.96 40.48 6.87 40.69C6.72 41.03 6.64 41.39 6.64 41.76C6.99 41.7 7.34 41.61 7.67 41.49C8.2 41.29 8.69 41.01 9.09 40.67C9.38 40.37 9.6 40.05 9.76 39.7C9.91 39.36 9.99 39 10 38.63C9.64 38.69 9.29 38.79 8.97 38.91C8.43 39.1 7.94 39.38 7.54 39.72C7.42 39.83 7.31 39.95 7.22 40.07L7.22 40.08Z" fill="#F5D581" fill-opacity="1.000000" fill-rule="evenodd"/>
	<path id="Vector 1" d="M28.18 20.08L41.5 20.08L41.5 19.08L28.18 19.08Q27.95 19.08 27.72 19.12Q27.5 19.16 27.28 19.24Q27.07 19.33 26.87 19.45Q26.68 19.56 26.51 19.72L13.15 31.73Q12.88 31.98 12.66 32.27Q12.45 32.57 12.3 32.91Q12.15 33.25 12.07 33.6Q12 33.96 12 34.33L12 34.5C12 34.78 12.22 35 12.5 35C12.78 35 13 34.78 13 34.5L13 34.33Q13 34.07 13.05 33.81Q13.1 33.56 13.21 33.31Q13.32 33.07 13.47 32.86Q13.63 32.65 13.82 32.47L27.18 20.46Q27.28 20.37 27.4 20.3Q27.51 20.23 27.64 20.18Q27.77 20.13 27.91 20.1Q28.04 20.08 28.18 20.08Z" fill="#F5D581" fill-opacity="1.000000" fill-rule="evenodd"/>
	<path id="Rectangle 1" d="M21 0C9.4 0 0 9.4 0 21L0 47L42 47L42 21C42 9.4 32.59 0 21 0ZM41 46L41 21Q41 16.85 39.53 13.32Q38.07 9.78 35.14 6.85Q32.21 3.92 28.67 2.46Q25.14 1 21 1Q16.85 1 13.32 2.46Q9.78 3.92 6.85 6.85Q3.92 9.78 2.46 13.32Q1 16.85 1 21L1 46L41 46Z" fill="#F5D581" fill-opacity="1.000000" fill-rule="evenodd"/>
</svg>
