<svg xmlns="http://www.w3.org/2000/svg" width="152" height="152" fill="none">
  <path fill="#EEE" d="M0 0h152v152H0z"/><path fill="#111" d="M36.3 95.8A18.6 18.6 0 0 1 33 84V67c-.3-4.2.9-8.4 3.3-12 2.1-2.7 5.8-4 11-4s8.7 1.2 10.6 3.6a15 15 0 0 1 3 10.2v4h-9.6v-4.4c0-1.1 0-2.2-.3-3.4 0-.8-.5-1.5-1-2.1a3.6 3.6 0 0 0-2.7-.9 3.5 3.5 0 0 0-3.5 1.7c-.6 1.6-.9 3.3-.8 5v21.7c-.1 1.7.2 3.4.9 5a3.4 3.4 0 0 0 3.4 1.7 3.2 3.2 0 0 0 3.2-1.7c.6-1.6.8-3.3.7-5v-4.6H61v4c.3 3.7-.8 7.4-2.9 10.5-2 2.5-5.6 3.7-10.6 3.7s-9-1.4-11.1-4.2ZM73.5 52h11.1L94 99h-9.3l-1.6-10.4h-7.8L73.4 99H64l9.5-47ZM82 82.7l-3-18.9-2.9 19h6ZM100.6 59H93v-7h25v7h-7.5v40h-10V59Z"/>
</svg>
