<svg xmlns="http://www.w3.org/2000/svg" width="43" height="47" fill="none" viewBox="0 0 43 47">
  <path fill="#A4C639" fill-rule="evenodd" d="M31.48 4.77a10.4 10.4 0 0 1 3.26 7.29H8.17a10.44 10.44 0 0 1 3.29-7.36L8.96.46a.31.31 0 0 1 .11-.42.33.33 0 0 1 .43.15l2.38 4.11A16.98 16.98 0 0 1 21.46.9c3.5.1 6.87 1.3 9.63 3.4L33.5.15c.04-.07.1-.12.18-.14a.32.32 0 0 1 .24.03.32.32 0 0 1 .17.2.3.3 0 0 1-.05.26l-2.57 4.27ZM14.94 5.79a1.49 1.49 0 0 0 0 2.12 1.55 1.55 0 0 0 2.17 0 1.49 1.49 0 0 0 0-2.12 1.55 1.55 0 0 0-2.17 0Zm11.38 0a1.49 1.49 0 0 0 0 2.12 1.55 1.55 0 0 0 2.17 0 1.49 1.49 0 0 0 0-2.12 1.55 1.55 0 0 0-2.17 0Zm-18.2 8.27h26.77c0 .12.02.23.03.34v18.8c0 .9-.34 1.8-.97 2.46a3.7 3.7 0 0 1-2.43 1.16v7.46a2.87 2.87 0 0 1-.92 1.93 2.99 2.99 0 0 1-4.05 0c-.55-.5-.88-1.2-.92-1.93v-7.44h-8.24v7.44a2.87 2.87 0 0 1-.92 1.93 2.99 2.99 0 0 1-4.05 0c-.55-.5-.88-1.2-.92-1.93v-7.46a3.7 3.7 0 0 1-2.43-1.16 3.56 3.56 0 0 1-.96-2.46V14.06Zm-3.1 2.54A2.97 2.97 0 0 0 0 18.63v12.4c0 .77.31 1.5.86 2.05a2.98 2.98 0 0 0 4.82-.94 3 3 0 0 0 .22-1.1V18.62c0-.77-.31-1.5-.87-2.04Zm35.03-.85a2.93 2.93 0 0 1 2.94 2.89v12.4a2.84 2.84 0 0 1-.86 2.05 2.95 2.95 0 0 1-2.08.85c-.79 0-1.54-.3-2.1-.85a2.87 2.87 0 0 1-.86-2.05v-12.4a2.84 2.84 0 0 1 .87-2.04 2.95 2.95 0 0 1 2.09-.85Z"/>
</svg>
