<svg width="32.000000" height="32.000000" viewBox="0 0 32 32" fill="none" xmlns="http://www.w3.org/2000/svg" xmlns:xlink="http://www.w3.org/1999/xlink">
	<desc>
			Created with Pixso.
	</desc>
	<defs>
		<clipPath id="clip15092_4">
			<rect id="Favicon / 32" width="32.000000" height="32.000000" fill="white" fill-opacity="0"/>
		</clipPath>
	</defs>
	<rect id="Favicon / 32" width="32.000000" height="32.000000" fill="#81B3D3" fill-opacity="1.000000"/>
	<g clip-path="url(#clip15092_4)">
		<path id="Path" d="M10.7231 19.7434C10.7457 19.7656 10.7571 19.7875 10.7571 19.8096C10.78 19.8096 10.8025 19.8204 10.8251 19.8426C11.4379 20.5021 12.1302 21.1178 12.9019 21.6896C13.6733 22.2392 14.5587 22.536 15.5573 22.58C15.5801 22.58 15.6027 22.5914 15.6252 22.6132L15.7275 22.6132C15.7501 22.6132 15.7729 22.624 15.7955 22.6462L16.1699 22.6462C16.2836 22.624 16.3856 22.6022 16.4766 22.58C16.8403 22.5138 17.1873 22.3794 17.4979 22.1844C17.8379 21.9864 18.0991 21.7444 18.2806 21.4587L18.3489 21.3266L18.4169 21.1948C18.4623 21.0409 18.4963 20.898 18.5192 20.7659C18.5417 20.6341 18.5532 20.5132 18.5532 20.4032C18.5532 19.8096 18.2806 19.3149 17.7362 18.9189C17.2286 18.5092 16.653 18.1857 16.0338 17.9623C15.801 17.8791 15.562 17.813 15.3188 17.7646C15.1055 17.7021 14.8898 17.647 14.6721 17.5996L14.6041 17.5996C14.5813 17.5778 14.5587 17.5667 14.5361 17.5667C13.4323 17.3061 12.376 16.8834 11.4041 16.3133C10.4279 15.7197 9.75867 14.873 9.39539 13.7735C9.32434 13.5435 9.25623 13.3125 9.19104 13.0808C9.14453 12.8298 9.11047 12.5767 9.08911 12.3224C9.06812 12.247 9.05676 12.1694 9.05505 12.0912L9.05505 11.2997C9.07764 11.1239 9.11169 10.948 9.1571 10.772C9.22754 10.3228 9.34155 9.8811 9.49744 9.45266C9.65637 9.01299 9.8606 8.61706 10.1101 8.26543C10.8365 7.0998 11.767 6.26419 12.9019 5.75863C14.0594 5.25278 15.2623 5 16.5105 5C16.8058 5 17.1006 5.02187 17.3959 5.06589C17.7146 5.08796 18.0325 5.12093 18.3489 5.16473C19.1768 5.29965 19.9872 5.52087 20.766 5.82452C21.583 6.13241 22.3319 6.49511 23.0129 6.91291L21.1406 10.9699C20.5295 10.5313 19.8802 10.145 19.2 9.81564C18.5192 9.48561 17.7816 9.32087 16.9872 9.32087L16.7146 9.32087C16.1927 9.38676 15.705 9.61768 15.2509 10.0133C14.797 10.3871 14.5702 10.7941 14.5702 11.2338L14.5702 11.4317C14.5928 11.4976 14.6267 11.5635 14.6721 11.6297C14.7177 11.7836 14.797 11.9265 14.9105 12.0586C15.0239 12.1904 15.1488 12.3114 15.2849 12.4213C15.5347 12.6193 15.8976 12.8061 16.3745 12.982C16.8508 13.1359 17.3505 13.2898 17.8726 13.4438C18.3035 13.5537 18.7233 13.6636 19.132 13.7735C19.5405 13.8616 19.8809 13.9496 20.1532 14.0377C21.4241 14.4773 22.3774 15.2138 23.0129 16.2474C23.6482 17.2588 23.9774 18.3364 24 19.4796L24 19.6446C24 19.7767 23.9889 19.9088 23.9659 20.0405L23.9659 20.4032C23.83 21.5467 23.4442 22.6351 22.8086 23.6687C22.1959 24.7022 21.3674 25.4938 20.3236 26.0437C19.936 26.2202 19.5382 26.3743 19.132 26.5052C18.7262 26.6146 18.3176 26.7136 17.9065 26.8023C17.5695 26.8678 17.2283 26.9118 16.8851 26.9341C16.558 26.9772 16.2281 26.9992 15.8978 27L15.5232 27C14.1615 26.9563 12.8226 26.6702 11.5061 26.1422C10.1898 25.5927 9.021 24.867 8 23.9655L10.7231 19.7434Z" fill="#FFFFFF" fill-opacity="1.000000" fill-rule="nonzero"/>
	</g>
</svg>
