<svg xmlns="http://www.w3.org/2000/svg" width="38" height="37" fill="none" viewBox="0 0 38 37">
  <path fill="#81B3D2" d="M14.4 33.22h8.35V21.06H14.4v12.16Zm6.84-1.48h-5.32v-9.2h5.27v9.2h.05Z"/>
  <path fill="#81B3D2" d="M36.93 20.14 38 19.06 32.96 14V.2h-7.02v6.75L18.97 0 0 19.11l1.07 1.08 3.97-3.99v19.32H3.05V37h32.5v-1.48h-2.59V16.15l3.97 3.99Zm-9.51-18.4h4.02v10.78l-4.02-4.04V1.74Zm4.07 33.73H6.56v-20.8L18.97 2.15l12.47 12.52v20.8h.05Z"/>
  <path fill="#81B3D2" d="M14.56 13.84a4.01 4.01 0 0 0 4.02 3.96 4.03 4.03 0 0 0 4.07-3.96 3.98 3.98 0 0 0-4.07-3.92 3.94 3.94 0 0 0-4.02 3.92Zm4.02-2.55a2.59 2.59 0 0 1 2.6 2.55 2.58 2.58 0 0 1-2.6 2.54 2.59 2.59 0 0 1-2.61-2.54c0-1.38 1.2-2.55 2.6-2.55Z"/>
  <path fill="#81B3D2" fill-rule="evenodd" d="M7.82 21.06H9.4v1.99H7.82v-1.99Zm3.08 0h1.57v1.99H10.9v-1.99Zm-3.08 3.05H9.4v1.99H7.82v-2Zm3.08 0h1.57v1.99H10.9v-2Zm13.58-3.05h1.56v1.99h-1.56v-1.99Zm3.13 0h1.57v1.99H27.6v-1.99Zm-3.13 3.05h1.56v1.99h-1.56v-2Zm3.13 0h1.57v1.99H27.6v-2Z"/>
</svg>
