<svg xmlns="http://www.w3.org/2000/svg" width="145" height="40" fill="none" viewBox="0 0 145 40">
  <path fill="#283645" fill-rule="evenodd" d="M92.66 17.87c-.06.16-.08.34-.07.52V38.6a1.28 1.28 0 0 0 1.27 1.4 1.27 1.27 0 0 0 1.27-1.39V18.4a1.28 1.28 0 0 0-1.27-1.4 1.27 1.27 0 0 0-1.2.87Zm34.34 0c-.06.16-.08.34-.06.52v20.2a1.28 1.28 0 0 0 .79 1.17 1.26 1.26 0 0 0 1.65-.68c.06-.16.1-.32.1-.49v-4.88l4.82-4.85 8.36 10.46a1.24 1.24 0 0 0 1.93.22 1.3 1.3 0 0 0 .41-.92c0-.34-.12-.68-.35-.94l-8.57-10.53 7.95-7.9a1.28 1.28 0 0 0 .41-.9 1.28 1.28 0 0 0-1.22-1.25c-.38.02-.73.18-1 .45l-12.75 13.13v-12.3a1.3 1.3 0 0 0-.33-.97 1.27 1.27 0 0 0-1.87 0c-.12.14-.21.29-.27.46Zm-25.33.55a1.28 1.28 0 0 1 1.26-1.25h.34a1.53 1.53 0 0 1 1.29.74l13.6 17.4V18.36a1.24 1.24 0 0 1 1.23-1.24 1.23 1.23 0 0 1 1.23 1.24v20.3a1.16 1.16 0 0 1-.32.83 1.13 1.13 0 0 1-.83.34h-.13a1.69 1.69 0 0 1-1.31-.78l-13.91-17.8v17.4a1.26 1.26 0 0 1-1.2 1.25 1.23 1.23 0 0 1-1.2-1.25V18.42h-.05Zm-30.3-.77a1.3 1.3 0 0 0-.37.9V38.6a1.28 1.28 0 0 0 1.27 1.4 1.27 1.27 0 0 0 1.27-1.39v-6.8h5.43c4.77 0 8.8-2.51 8.8-7.36v-.06c0-4.43-3.32-7.13-8.38-7.13h-7.13c-.34.01-.66.15-.89.39Zm13.84 6.88c0 3-2.43 4.99-6.14 4.99l-5.48-.04V19.6h5.66c3.57 0 5.96 1.66 5.96 4.87v.06Z"/>
  <path fill="#D22856" fill-rule="evenodd" d="m53.9 6.59 5.03 21.14a1.42 1.42 0 0 1-.75 1.72c-.2.09-.43.13-.65.11h-4.01a11.63 11.63 0 0 1-11.49 10.32c-5.92 0-10.8-4.5-11.49-10.32h-1.96A11.75 11.75 0 0 1 16.97 40c-6 0-10.94-4.57-11.61-10.47H1.45A1.36 1.36 0 0 1 .3 29a1.42 1.42 0 0 1-.24-1.27L5.1 6.6C5.46 4.26 7.64 0 13.5 0c.38 0 .76.16 1.03.44a1.5 1.5 0 0 1 0 2.1c-.27.27-.65.43-1.03.43-4.71 0-5.44 3.7-5.5 4.1L3.34 26.6h2.03a11.75 11.75 0 0 1 11.6-10.3c5.94 0 10.84 4.48 11.6 10.3h1.99a11.63 11.63 0 0 1 11.47-10.19c5.89 0 10.75 4.46 11.48 10.23v-.06h2.14L51 7.08c-.07-.41-.77-4.1-5.5-4.1-.39 0-.76-.17-1.03-.44a1.5 1.5 0 0 1 0-2.1c.27-.28.64-.44 1.03-.44 5.85 0 8.03 4.26 8.38 6.59ZM25.66 29.56a9.12 9.12 0 0 0-.02-2.97 8.85 8.85 0 0 0-8.68-7.38 8.85 8.85 0 0 0-8.82 8.94 8.85 8.85 0 0 0 8.81 8.94c4.4 0 8.04-3.26 8.71-7.53Zm24.94 0a8.76 8.76 0 0 0-8.58-10.23 8.76 8.76 0 0 0-8.58 10.23 8.73 8.73 0 0 0 8.58 7.4c4.33 0 7.91-3.2 8.58-7.4Z"/>
</svg>
