<svg width="8.700012" height="18.899902" viewBox="0 0 8.70001 18.8999" fill="none" xmlns="http://www.w3.org/2000/svg" xmlns:xlink="http://www.w3.org/1999/xlink">
	<desc>
			Created with Pixso.
	</desc>
	<defs>
		<linearGradient id="paint_linear_1335_227_0" x1="4.349998" y1="0.000000" x2="4.349998" y2="18.900000" gradientUnits="userSpaceOnUse">
			<stop stop-color="#FFFFFF"/>
			<stop offset="1.000000" stop-color="#E1E1E1"/>
		</linearGradient>
	</defs>
	<path id="icon-facebook.svg" d="M6.29999 3.3999C7.09998 3.3999 7.90002 3.3999 8.70001 3.3999C8.70001 2.30005 8.70001 1.19995 8.70001 0C7.70001 0 6.79999 0 5.79999 0C2.70001 0.199951 1.5 2.3999 1.90002 6.1001L0 6.1001L0 9.6001L2 9.6001C2 12.7 2 15.8 2 18.8999C3.29999 18.8999 4.59998 18.8999 5.79999 18.8999C5.79999 15.8 5.79999 12.7 5.79999 9.6001L8.70001 9.6001L8.70001 6.1001L5.79999 6.1001C5.79999 5.1001 5.79999 3.69995 6.29999 3.3999Z" fill="#FFFFFF" fill-opacity="1.000000" fill-rule="nonzero"/>
	<path id="icon-facebook.svg" d="M6.29999 3.3999C7.09998 3.3999 7.90002 3.3999 8.70001 3.3999C8.70001 2.30005 8.70001 1.19995 8.70001 0C7.70001 0 6.79999 0 5.79999 0C2.70001 0.199951 1.5 2.3999 1.90002 6.1001L0 6.1001L0 9.6001L2 9.6001C2 12.7 2 15.8 2 18.8999C3.29999 18.8999 4.59998 18.8999 5.79999 18.8999C5.79999 15.8 5.79999 12.7 5.79999 9.6001L8.70001 9.6001L8.70001 6.1001L5.79999 6.1001C5.79999 5.1001 5.79999 3.69995 6.29999 3.3999Z" fill="url(#paint_linear_1335_227_0)" fill-opacity="0" fill-rule="nonzero"/>
</svg>
