<svg width="23.000000" height="21.000000" viewBox="0 0 23 21" fill="none" xmlns="http://www.w3.org/2000/svg" xmlns:xlink="http://www.w3.org/1999/xlink">
		<path d="M12.9636 3.78003L12.3364 6.82501L11.7091 9.45001L14.3227 9.45001L20.8045 9.45001L20.8045 11.55C20.8045 11.55 20.8045 11.55 20.8045 11.655L17.7727 18.9L8.36364 18.9L8.36364 8.40002L12.9636 3.78003ZM2.09091 10.5L2.09091 18.9L2.09091 10.5ZM13.8 0L6.9 6.92999C6.48182 7.245 6.27273 7.77002 6.27273 8.40002L6.27273 18.9C6.27273 20.055 7.21364 21 8.36364 21L17.7727 21C18.6091 21 19.3409 20.475 19.6545 19.74L22.7909 12.285C22.8955 12.075 22.8955 11.76 22.8955 11.55L22.8955 9.45001L23 9.45001C23 8.29498 22.0591 7.34998 20.9091 7.34998L14.3227 7.34998L15.3682 2.52002L15.3682 2.20502C15.3682 1.78497 15.1591 1.36499 14.95 1.04999L13.8 0ZM4.18182 8.40002L0 8.40002L0 21L4.18182 21L4.18182 8.40002Z" fill="#000000" fill-opacity="1.000000" fill-rule="nonzero"/>
</svg>
