<svg xmlns="http://www.w3.org/2000/svg" width="19" height="13" fill="none" viewBox="0 0 19 13">
  <path fill="#D22856" fill-rule="evenodd" d="M14.26 0c1.56 0 1.85.75.65 1.68l-3.74 2.89a3.75 3.75 0 0 1-4.35 0L3.07 1.68C1.88.76 2.17 0 3.73 0h10.53ZM9.7 8.24l2.21-1.74 3.91-2.96C17 2.61 18 3.02 18 4.47v5.86a2.6 2.6 0 0 1-.83 1.88 2.93 2.93 0 0 1-2.02.79H2.83a3 3 0 0 1-2.01-.79 2.67 2.67 0 0 1-.62-.87 2.34 2.34 0 0 1-.2-1.01V4.47c0-1.45 1-1.88 2.18-.95l3.9 2.98 2.23 1.72c.07.05.15.1.24.13l.12.08.33.05c.11-.01.23-.04.34-.08l.1-.05a.97.97 0 0 0 .26-.11Z"/>
</svg>
