<svg xmlns="http://www.w3.org/2000/svg" width="20" height="19" fill="none" viewBox="0 0 20 19">
  <path fill="#D22856" d="M10.04 0C6.46 0 2.9.6 1.58 1.81A6.4 6.4 0 0 0 0 5.87c0 .21.09.41.24.56a.9.9 0 0 0 .59.23l3.24-.25h.09a.95.95 0 0 0 .58-.24.85.85 0 0 0 .17-.25.8.8 0 0 0 .06-.3V4.04c0-.11.02-.23.07-.33a.72.72 0 0 1 .2-.29.81.81 0 0 1 .29-.19c.12-.04.24-.07.36-.07h8.15a1 1 0 0 1 .66.26c.17.16.27.39.27.62V5.6c0 .2.08.4.24.55.15.15.36.23.57.24h.1l3.28.25a.87.87 0 0 0 .59-.23.76.76 0 0 0 .24-.56 6.43 6.43 0 0 0-1.56-4.03C17.19.6 13.61 0 10.04 0Zm0 10.3a1.68 1.68 0 0 0-1.55.98A1.52 1.52 0 0 0 8.85 13c.24.22.54.37.86.44.32.06.66.03.97-.09.3-.12.56-.33.75-.59.18-.26.28-.56.28-.88 0-.21-.04-.41-.13-.6a1.6 1.6 0 0 0-.9-.86 1.77 1.77 0 0 0-.64-.12ZM8.78 6.75v-.96c0-.26-.11-.5-.3-.68a1.06 1.06 0 0 0-.72-.29c-.27 0-.53.11-.72.29a.93.93 0 0 0-.3.68v.96l-5.72 5.69a2 2 0 0 0-.48.65c-.1.24-.16.51-.16.77v1.59c0 .42.18.82.49 1.12.32.3.74.47 1.19.47h.41v.97c0 .13.03.25.08.37.06.12.13.23.23.33.1.09.21.16.34.21.13.05.26.08.4.08s.27-.03.4-.08c.12-.05.24-.12.34-.21.09-.1.17-.21.22-.33a.8.8 0 0 0 .08-.37v-.97h10.91v.97a1 1 0 0 0 .3.7 1.09 1.09 0 0 0 1.48 0c.2-.19.31-.44.31-.7v-.97h.41a1.73 1.73 0 0 0 1.55-.98c.09-.2.13-.41.13-.61v-1.59a1.9 1.9 0 0 0-.63-1.42l-5.64-5.69v-.96a.95.95 0 0 0-.31-.7 1.04 1.04 0 0 0-.74-.29c-.27 0-.54.1-.73.29a.95.95 0 0 0-.31.7v.96H8.78Zm1.26 1.94c.66 0 1.3.18 1.85.53.55.35.98.84 1.23 1.42.26.58.32 1.22.19 1.83a3 3 0 0 1-.91 1.62c-.47.45-1.06.75-1.71.87-.65.12-1.32.06-1.93-.18a3.3 3.3 0 0 1-1.5-1.17 3.03 3.03 0 0 1 .41-4 3.47 3.47 0 0 1 2.37-.92Z"/>
</svg>
