<svg xmlns="http://www.w3.org/2000/svg" width="238" height="276" fill="none" viewBox="0 0 238 276">
  <path fill="#DEDEDE" d="m211.31 81.63 4.28-4.29c6.16-6.17 7.29-15.15 2.5-19.94-4.8-4.79-13.76-3.68-19.91 2.5l-4.3 4.3a118.27 118.27 0 0 0-59.7-25.57v-7.67h6.13c8.7 0 15.84-6.97 15.84-15.48 0-8.5-7.13-15.48-15.84-15.48H97.72c-8.71 0-15.84 6.97-15.84 15.48 0 8.52 7.13 15.48 15.84 15.48h6.12v7.67a118.93 118.93 0 0 0-69.05 34 119.31 119.31 0 0 0-18.32 144.68 119.05 119.05 0 0 0 58.38 50.19 118.84 118.84 0 0 0 76.85 3.91 118.99 118.99 0 0 0 63.18-43.99 119.28 119.28 0 0 0-3.57-145.8Zm-92.3 163.32a87.9 87.9 0 0 1-48.88-14.85A88.23 88.23 0 0 1 56.8 94.53a87.95 87.95 0 0 1 95.89-19.1 88.01 88.01 0 0 1 39.49 32.45 88.2 88.2 0 0 1-10.95 111.26 87.92 87.92 0 0 1-62.22 25.8Z"/>
  <circle cx="119" cy="157" r="93" stroke="#D22856" stroke-width="16"/>
  <path fill="#D22856" fill-rule="evenodd" d="M67.95 191h47.9v-12.19H86v-.65l8.81-8.3q6.05-5.58 10.34-10.17 4.29-4.6 6.54-9.28l.32-.7q1.93-4.41 1.93-9.66 0-3.82-1.36-7.06-.53-1.26-1.27-2.44-.5-.8-1.08-1.53-2.47-3.12-6.4-5.1-4.85-2.44-11.6-2.44-6.14 0-10.52 1.39-4.38 1.38-7.69 3.63-3.3 2.25-6.25 4.78l7.87 9.33q4.08-3.38 7.83-5.2 2.72-1.33 5.56-1.7 1.08-.13 2.17-.13 3.4 0 5.57 1.62.26.2.5.42.25.22.47.46 1.8 2.02 1.8 5.65 0 2.17-.58 4.16-.33 1.11-.84 2.17-1.43 2.96-4.6 6.54-3.16 3.59-8.36 8.93l-17.2 17.4V191Zm96.1-14.2h8.25v-11.25h-8.25v-43.08h-13.36l-30.05 44.25v10.08h29.25V191h14.16v-14.2Zm-14.16-22.88v11.63h-16.5l12.56-18.99q1.32-1.97 2.3-3.77.98-1.8 1.88-3.73h.37l-.16 2.46q-.12 1.76-.22 4.01l-.16 4.5q-.07 2.25-.07 3.9Z"/>
</svg>
